<svg width="74" height="56" viewBox="0 0 74 56" fill="none" xmlns="http://www.w3.org/2000/svg">
<path d="M69.1034 15.3199H62.1687L60.1822 4.06387C59.7254 1.44968 57.1984 -0.29611 54.6082 0.154611L4.05837 9.06988C1.44719 9.52961 -0.304612 12.0326 0.158128 14.6468L5.54875 45.2117C5.77111 46.4767 6.47123 47.5825 7.52291 48.3217C8.34322 48.8956 9.29575 49.1961 10.2753 49.1961C10.5578 49.1961 10.8402 49.172 11.1227 49.121L12.9646 48.7957V51.1071C12.9646 53.7604 15.1221 55.9178 17.7753 55.9178H69.1034C71.7567 55.9178 73.9171 53.7604 73.9171 51.1071V20.1306C73.9171 17.4773 71.7567 15.3199 69.1034 15.3199ZM69.3018 20.1306V24.6558H17.5982L17.7753 19.9353L69.3018 20.1306ZM10.092 44.4124L5.57279 18.7874L4.86065 13.6131L55.6389 4.86315L57.4835 15.3199H17.7753C15.1221 15.3199 12.9646 17.4773 12.9646 20.1306V44.0287L10.092 44.4124ZM69.1034 51.3024L17.58 51.1071V32.8259H69.3018V51.1071C69.3018 51.2153 69.2116 51.3024 69.1034 51.3024Z" fill="#1D1D1B"/>
</svg>
