<svg width="80" height="80" viewBox="0 0 80 80" fill="none" xmlns="http://www.w3.org/2000/svg">
<path fill-rule="evenodd" clip-rule="evenodd" d="M23.6 32.4005L18 38.0005L36 56.0005L76 16.0005L70.4 10.4005L36 44.8005L23.6 32.4005ZM72 40.0005C72 57.6005 57.6 72.0005 40 72.0005C22.4 72.0005 8 57.6005 8 40.0005C8 22.4005 22.4 8.00049 40 8.00049C43.2 8.00049 46 8.40049 48.8 9.20049L55.2 2.80049C50.4 1.20049 45.2 0.000488281 40 0.000488281C18 0.000488281 0 18.0005 0 40.0005C0 62.0005 18 80.0005 40 80.0005C62 80.0005 80 62.0005 80 40.0005H72Z" fill="#21AC0B"/>
</svg>
