<svg width="61" height="80" viewBox="0 0 61 80" fill="none" xmlns="http://www.w3.org/2000/svg">
<path d="M58 30C58 22.7065 55.1027 15.7118 49.9454 10.5546C44.7882 5.39731 37.7935 2.5 30.5 2.5C23.2065 2.5 16.2118 5.39731 11.0546 10.5546C5.89731 15.7118 3 22.7065 3 30C3 55 30.5 77.5 30.5 77.5C30.5 77.5 58 55 58 30Z" stroke="#333333" stroke-width="6" stroke-linecap="round" stroke-linejoin="round"/>
<path d="M30.5 42.5C37.4036 42.5 43 36.9036 43 30C43 23.0964 37.4036 17.5 30.5 17.5C23.5964 17.5 18 23.0964 18 30C18 36.9036 23.5964 42.5 30.5 42.5Z" stroke="#333333" stroke-width="6" stroke-linecap="round" stroke-linejoin="round"/>
</svg>
