<svg width="128" height="128" viewBox="0 0 128 128" fill="none" xmlns="http://www.w3.org/2000/svg">
<g clip-path="url(#clip0)">
<path d="M119.532 1H10.4684C5.24815 1 1 5.24815 1 10.4684V119.532C1 124.752 5.24815 129 10.4684 129H119.532C124.752 129 129 124.752 129 119.532V10.4684C129 5.24815 124.752 1 119.532 1ZM122.688 10.4684V30.9832H45.3626V7.31226H119.532C121.272 7.31226 122.688 8.72831 122.688 10.4684ZM10.4684 7.31226H39.0482V30.9832H7.31226V10.4684C7.31226 8.72831 8.72831 7.31226 10.4684 7.31226ZM7.31226 119.532V37.2955H39.0482V122.686H10.4684C8.72831 122.688 7.31226 121.272 7.31226 119.532ZM119.532 122.688H45.3626V37.2955H122.688V119.53C122.688 121.272 121.272 122.688 119.532 122.688Z" fill="#333333"/>
</g>
<defs>
<clipPath id="clip0">
<rect width="128" height="128" fill="white"/>
</clipPath>
</defs>
</svg>
