<svg width="129" height="128" viewBox="0 0 129 128" fill="none" xmlns="http://www.w3.org/2000/svg">
<path d="M64.5 32.29C64.73 32.29 87.42 32.29 102.4 33.37L103.06 33.43C105.06 33.61 107.22 33.82 109.34 36.01C110.34 37.01 111.48 40.55 111.87 43.08C112.502 48.6281 112.836 54.2061 112.87 59.79V68.03C112.835 73.6171 112.501 79.1984 111.87 84.75C111.5 87.22 110.33 90.81 109.35 91.75C107.24 93.93 105.03 94.14 103.08 94.33L102.4 94.4C87.68 95.4 65.51 95.5 64.51 95.5C63.36 95.5 36.51 95.23 27.94 94.5C27.43 94.42 26.94 94.35 26.36 94.29C24.08 94.02 21.49 93.71 19.63 91.78C18.63 90.78 17.49 87.25 17.11 84.73C16.4778 79.1819 16.144 73.6039 16.11 68.02V59.86C16.1455 54.2761 16.4793 48.6982 17.11 43.15C17.5 40.6 18.66 37.06 19.64 36.08C21.76 33.89 23.97 33.69 25.92 33.5L26.58 33.44C41.58 32.37 64.25 32.36 64.47 32.36H64.5V32.29ZM64.5 25.86C64.5 25.86 41.41 25.86 26.02 26.96C23.87 27.21 19.19 27.23 15.02 31.55C11.73 34.85 10.65 42.34 10.65 42.34C9.95073 48.1549 9.56684 54.0035 9.5 59.86V68.1C9.54759 73.9789 9.9148 79.8509 10.6 85.69C10.6 85.69 11.67 93.18 14.97 96.47C19.16 100.79 24.65 100.66 27.1 101.12C35.9 101.95 64.5 102.21 64.5 102.21C64.5 102.21 87.61 102.21 103.01 101.08C105.16 100.83 109.85 100.8 114.01 96.48C117.3 93.19 118.38 85.7 118.38 85.7C119.072 79.8613 119.446 73.9893 119.5 68.11V59.87C119.452 53.991 119.085 48.1191 118.4 42.28C118.4 42.28 117.33 34.79 114.03 31.49C109.85 27.17 105.16 27.14 103.03 26.9C87.61 25.79 64.5 25.79 64.5 25.79V25.86Z" fill="#333333"/>
<path d="M54.63 47.61V80.39L82.62 64L54.63 47.61Z" fill="#333333"/>
</svg>
