<svg width="49" height="49" viewBox="0 0 49 49" fill="none" xmlns="http://www.w3.org/2000/svg">
<path d="M44.7453 0.302246H3.84654C1.88895 0.302246 0.295898 1.8953 0.295898 3.85289V44.7516C0.295898 46.7092 1.88895 48.3022 3.84654 48.3022H44.7453C46.7028 48.3022 48.2959 46.7092 48.2959 44.7516V3.85289C48.2959 1.8953 46.7028 0.302246 44.7453 0.302246ZM45.9288 3.85289V11.546H16.9319V2.66934H44.7453C45.3978 2.66934 45.9288 3.20036 45.9288 3.85289ZM3.84654 2.66934H14.564V11.546H2.663V3.85289C2.663 3.20036 3.19401 2.66934 3.84654 2.66934ZM2.663 44.7516V13.9131H14.564V45.9344H3.84654C3.19401 45.9351 2.663 45.4041 2.663 44.7516ZM44.7453 45.9351H16.9319V13.9131H45.9288V44.7508C45.9288 45.4041 45.3978 45.9351 44.7453 45.9351Z" fill="black"/>
</svg>
