<svg width="49" height="49" viewBox="0 0 49 49" fill="none" xmlns="http://www.w3.org/2000/svg">
<path d="M44.7453 0.302124H3.84654C1.88895 0.302124 0.295898 1.89518 0.295898 3.85277V44.7515C0.295898 46.7091 1.88895 48.3021 3.84654 48.3021H44.7453C46.7028 48.3021 48.2959 46.7091 48.2959 44.7515V3.85277C48.2959 1.89518 46.7028 0.302124 44.7453 0.302124ZM45.9288 3.85277V11.5458H16.9319V2.66922H44.7453C45.3978 2.66922 45.9288 3.20024 45.9288 3.85277ZM3.84654 2.66922H14.564V11.5458H2.663V3.85277C2.663 3.20024 3.19401 2.66922 3.84654 2.66922ZM2.663 44.7515V13.9129H14.564V45.9342H3.84654C3.19401 45.935 2.663 45.404 2.663 44.7515ZM44.7453 45.935H16.9319V13.9129H45.9288V44.7507C45.9288 45.404 45.3978 45.935 44.7453 45.935Z" fill="white"/>
</svg>
