<svg width="12" height="13" viewBox="0 0 12 13" fill="none" xmlns="http://www.w3.org/2000/svg">
<path d="M10.9688 4.0625H0.40625C0.177734 4.0625 0 4.26562 0 4.46875V5.28125C0 5.50977 0.177734 5.6875 0.40625 5.6875H10.9688C11.1719 5.6875 11.375 5.50977 11.375 5.28125V4.46875C11.375 4.26562 11.1719 4.0625 10.9688 4.0625ZM10.9688 10.5625H0.40625C0.177734 10.5625 0 10.7656 0 10.9688V11.7812C0 12.0098 0.177734 12.1875 0.40625 12.1875H10.9688C11.1719 12.1875 11.375 12.0098 11.375 11.7812V10.9688C11.375 10.7656 11.1719 10.5625 10.9688 10.5625ZM2.74219 2.4375H8.60742C8.78516 2.4375 8.9375 2.31055 8.9375 2.13281V1.14258C8.9375 0.964844 8.78516 0.8125 8.60742 0.8125H2.74219C2.56445 0.8125 2.4375 0.964844 2.4375 1.14258V2.13281C2.4375 2.31055 2.56445 2.4375 2.74219 2.4375ZM8.60742 8.9375C8.78516 8.9375 8.9375 8.81055 8.9375 8.63281V7.64258C8.9375 7.46484 8.78516 7.3125 8.60742 7.3125H2.74219C2.56445 7.3125 2.4375 7.46484 2.4375 7.64258V8.63281C2.4375 8.81055 2.56445 8.9375 2.74219 8.9375H8.60742Z" fill="#EEEEEE"/>
</svg>
