<svg width="16" height="16" viewBox="0 0 16 16" fill="none" xmlns="http://www.w3.org/2000/svg">
<path d="M3.79688 1.6875H11.918C12.1641 1.6875 12.375 1.51172 12.375 1.26562V0.457031C12.375 0.210938 12.1641 0 11.918 0H3.79688C3.55078 0 3.375 0.210938 3.375 0.457031V1.26562C3.375 1.51172 3.55078 1.6875 3.79688 1.6875ZM15.1875 13.5H0.5625C0.246094 13.5 0 13.7812 0 14.0625V14.625C0 14.9414 0.246094 15.1875 0.5625 15.1875H15.1875C15.4688 15.1875 15.75 14.9414 15.75 14.625V14.0625C15.75 13.7812 15.4688 13.5 15.1875 13.5ZM15.1875 4.5H0.5625C0.246094 4.5 0 4.78125 0 5.0625V5.625C0 5.94141 0.246094 6.1875 0.5625 6.1875H15.1875C15.4688 6.1875 15.75 5.94141 15.75 5.625V5.0625C15.75 4.78125 15.4688 4.5 15.1875 4.5ZM11.918 10.6875C12.1641 10.6875 12.375 10.5117 12.375 10.2656V9.45703C12.375 9.21094 12.1641 9 11.918 9H3.79688C3.55078 9 3.375 9.21094 3.375 9.45703V10.2656C3.375 10.5117 3.55078 10.6875 3.79688 10.6875H11.918Z" fill="#EEEEEE"/>
</svg>
