<svg width="14" height="14" viewBox="0 0 14 14" fill="none" xmlns="http://www.w3.org/2000/svg">
<path d="M5.18489 0.126978C2.64583 0.634791 0.614579 2.66604 0.132157 5.17971C-0.807296 9.92776 3.45833 13.4571 6.70833 12.9746C7.74934 12.7969 8.25716 11.5781 7.77474 10.6387C7.19075 9.47073 8.02864 8.12502 9.32356 8.12502H11.3548C12.2435 8.12502 12.9798 7.3887 13.0052 6.47463C12.9798 2.48831 9.34895 -0.660131 5.18489 0.126978ZM2.4427 8.12502C1.98567 8.12502 1.6302 7.76956 1.6302 7.31252C1.6302 6.88088 1.98567 6.50002 2.4427 6.50002C2.87434 6.50002 3.2552 6.88088 3.2552 7.31252C3.2552 7.76956 2.87434 8.12502 2.4427 8.12502ZM3.2552 4.87502C2.79817 4.87502 2.4427 4.51956 2.4427 4.06252C2.4427 3.63088 2.79817 3.25002 3.2552 3.25002C3.68684 3.25002 4.0677 3.63088 4.0677 4.06252C4.0677 4.51956 3.68684 4.87502 3.2552 4.87502ZM6.5052 3.25002C6.04817 3.25002 5.6927 2.89456 5.6927 2.43752C5.6927 2.00588 6.04817 1.62502 6.5052 1.62502C6.93684 1.62502 7.3177 2.00588 7.3177 2.43752C7.3177 2.89456 6.93684 3.25002 6.5052 3.25002ZM9.7552 4.87502C9.29817 4.87502 8.9427 4.51956 8.9427 4.06252C8.9427 3.63088 9.29817 3.25002 9.7552 3.25002C10.1868 3.25002 10.5677 3.63088 10.5677 4.06252C10.5677 4.51956 10.1868 4.87502 9.7552 4.87502Z" fill="#EEEEEE"/>
</svg>
