<svg width="28" height="28" viewBox="0 0 28 28" fill="none" xmlns="http://www.w3.org/2000/svg">
<path d="M23.3726 3H4.62738C3.73015 3 3 3.73015 3 4.62738V23.3726C3 24.2699 3.73015 25 4.62738 25H23.3726C24.2698 25 25 24.2699 25 23.3726V4.62738C25 3.73015 24.2698 3 23.3726 3ZM23.9151 4.62738V8.15339H10.6248V4.08492H23.3726C23.6717 4.08492 23.9151 4.3283 23.9151 4.62738ZM4.62738 4.08492H9.53955V8.15339H4.08492V4.62738C4.08492 4.3283 4.3283 4.08492 4.62738 4.08492ZM4.08492 23.3726V9.23831H9.53955V23.9148H4.62738C4.3283 23.9151 4.08492 23.6717 4.08492 23.3726ZM23.3726 23.9151H10.6248V9.23831H23.9151V23.3723C23.9151 23.6717 23.6717 23.9151 23.3726 23.9151Z" fill="#6C757C" stroke="#6C757C" stroke-width="0.5"/>
</svg>
