<svg width="17" height="11" viewBox="0 0 17 11" fill="none" xmlns="http://www.w3.org/2000/svg">
<path d="M5.81445 1.18359C5.71289 0.878906 5.4082 0.625 5.05273 0.625H3.85938C3.50391 0.625 3.19922 0.878906 3.09766 1.18359L0 9.8418C0 9.89258 0 9.94336 0 9.96875C0 10.1973 0.177734 10.375 0.40625 10.375H1.67578C1.85352 10.375 2.00586 10.2734 2.05664 10.1211L2.53906 8.75H6.37305L6.85547 10.1211C6.90625 10.2734 7.05859 10.375 7.23633 10.375H8.53125C8.73438 10.375 8.91211 10.1973 8.91211 9.96875C8.91211 9.94336 8.91211 9.89258 8.91211 9.8418L5.81445 1.18359ZM3.27539 6.71875L4.46875 3.44336L5.63672 6.71875H3.27539ZM15.8438 3.0625H15.0312C14.8027 3.0625 14.625 3.26562 14.625 3.46875V3.51953C14.1426 3.24023 13.584 3.0625 13 3.0625C11.1973 3.08789 9.75 4.53516 9.75 6.3125V7.125C9.75 8.92773 11.1973 10.375 13 10.375C13.584 10.375 14.1426 10.2227 14.625 9.94336V9.96875C14.625 10.1973 14.8027 10.375 15.0312 10.375H15.8438C16.0469 10.375 16.25 10.1973 16.25 9.96875V3.46875C16.25 3.26562 16.0469 3.0625 15.8438 3.0625ZM14.2188 7.125C14.2188 7.81055 13.6602 8.34375 13 8.34375C12.3145 8.34375 11.7812 7.81055 11.7812 7.125V6.3125C11.7812 5.65234 12.3145 5.09375 13 5.09375C13.6602 5.09375 14.2188 5.65234 14.2188 6.3125V7.125Z" fill="#EEEEEE"/>
</svg>
