<svg width="16" height="16" viewBox="0 0 16 16" fill="none" xmlns="http://www.w3.org/2000/svg">
<path d="M15.1875 13.5H0.5625C0.246094 13.5 0 13.7812 0 14.0625V14.625C0 14.9414 0.246094 15.1875 0.5625 15.1875H15.1875C15.4688 15.1875 15.75 14.9414 15.75 14.625V14.0625C15.75 13.7812 15.4688 13.5 15.1875 13.5ZM15.1875 9H0.5625C0.246094 9 0 9.28125 0 9.5625V10.125C0 10.4414 0.246094 10.6875 0.5625 10.6875H15.1875C15.4688 10.6875 15.75 10.4414 15.75 10.125V9.5625C15.75 9.28125 15.4688 9 15.1875 9ZM15.1875 4.5H0.5625C0.246094 4.5 0 4.78125 0 5.0625V5.625C0 5.94141 0.246094 6.1875 0.5625 6.1875H15.1875C15.4688 6.1875 15.75 5.94141 15.75 5.625V5.0625C15.75 4.78125 15.4688 4.5 15.1875 4.5ZM15.1875 0H0.5625C0.246094 0 0 0.28125 0 0.5625V1.125C0 1.44141 0.246094 1.6875 0.5625 1.6875H15.1875C15.4688 1.6875 15.75 1.44141 15.75 1.125V0.5625C15.75 0.28125 15.4688 0 15.1875 0Z" fill="#EEEEEE"/>
</svg>
