<svg width="16" height="16" viewBox="0 0 16 16" fill="none" xmlns="http://www.w3.org/2000/svg">
<path d="M0.421875 10.6875H9.66797C9.91406 10.6875 10.125 10.5117 10.125 10.2656V9.45703C10.125 9.21094 9.91406 9 9.66797 9H0.421875C0.175781 9 0 9.21094 0 9.45703V10.2656C0 10.5117 0.175781 10.6875 0.421875 10.6875ZM0.421875 1.6875H9.66797C9.91406 1.6875 10.125 1.51172 10.125 1.26562V0.457031C10.125 0.210938 9.91406 0 9.66797 0H0.421875C0.175781 0 0 0.210938 0 0.457031V1.26562C0 1.51172 0.175781 1.6875 0.421875 1.6875ZM15.1875 4.5H0.5625C0.246094 4.5 0 4.78125 0 5.0625V5.625C0 5.94141 0.246094 6.1875 0.5625 6.1875H15.1875C15.4688 6.1875 15.75 5.94141 15.75 5.625V5.0625C15.75 4.78125 15.4688 4.5 15.1875 4.5ZM15.1875 13.5H0.5625C0.246094 13.5 0 13.7812 0 14.0625V14.625C0 14.9414 0.246094 15.1875 0.5625 15.1875H15.1875C15.4688 15.1875 15.75 14.9414 15.75 14.625V14.0625C15.75 13.7812 15.4688 13.5 15.1875 13.5Z" fill="#EEEEEE"/>
</svg>
