<svg width="16" height="16" viewBox="0 0 16 16" fill="none" xmlns="http://www.w3.org/2000/svg">
<path d="M15.5 7.75C15.5 3.5 12 0 7.75 0C3.46875 0 0 3.5 0 7.75C0 12.0312 3.46875 15.5 7.75 15.5C12 15.5 15.5 12.0312 15.5 7.75ZM7.9375 2.5625C9.71875 2.5625 11.5938 3.9375 11.5938 5.75C11.5938 8.1875 9 8.21875 9 9.09375V9.125C9 9.34375 8.8125 9.5 8.625 9.5H6.875C6.65625 9.5 6.5 9.34375 6.5 9.125V9C6.5 7.71875 7.46875 7.21875 8.1875 6.8125C8.8125 6.46875 9.21875 6.21875 9.21875 5.75C9.21875 5.125 8.40625 4.71875 7.78125 4.71875C6.9375 4.71875 6.5625 5.125 6 5.84375C5.875 6 5.625 6.03125 5.46875 5.90625L4.375 5.09375C4.21875 4.96875 4.1875 4.75 4.3125 4.5625C5.15625 3.28125 6.25 2.5625 7.9375 2.5625ZM7.75 10.3125C8.53125 10.3125 9.1875 10.9688 9.1875 11.75C9.1875 12.5625 8.53125 13.1875 7.75 13.1875C6.9375 13.1875 6.3125 12.5625 6.3125 11.75C6.3125 10.9688 6.9375 10.3125 7.75 10.3125Z" fill="#6C757C"/>
</svg>
