<svg width="16" height="16" viewBox="0 0 16 16" fill="none" xmlns="http://www.w3.org/2000/svg">
<path d="M0.5625 6.1875H15.1875C15.4688 6.1875 15.75 5.94141 15.75 5.625V5.0625C15.75 4.78125 15.4688 4.5 15.1875 4.5H0.5625C0.246094 4.5 0 4.78125 0 5.0625V5.625C0 5.94141 0.246094 6.1875 0.5625 6.1875ZM15.1875 13.5H0.5625C0.246094 13.5 0 13.7812 0 14.0625V14.625C0 14.9414 0.246094 15.1875 0.5625 15.1875H15.1875C15.4688 15.1875 15.75 14.9414 15.75 14.625V14.0625C15.75 13.7812 15.4688 13.5 15.1875 13.5ZM15.293 0H6.04688C5.80078 0 5.625 0.210938 5.625 0.457031V1.26562C5.625 1.51172 5.80078 1.6875 6.04688 1.6875H15.293C15.5391 1.6875 15.75 1.51172 15.75 1.26562V0.457031C15.75 0.210938 15.5391 0 15.293 0ZM15.293 9H6.04688C5.80078 9 5.625 9.21094 5.625 9.45703V10.2656C5.625 10.5117 5.80078 10.6875 6.04688 10.6875H15.293C15.5391 10.6875 15.75 10.5117 15.75 10.2656V9.45703C15.75 9.21094 15.5391 9 15.293 9Z" fill="#EEEEEE"/>
</svg>
