<svg width="30" height="30" viewBox="0 0 30 30" fill="none" xmlns="http://www.w3.org/2000/svg">
<path d="M26.9288 1H3.07121C1.92928 1 1 1.92928 1 3.07121V26.9288C1 28.0707 1.92928 29 3.07121 29H26.9288C28.0707 29 29 28.0707 29 26.9288V3.07121C29 1.92928 28.0707 1 26.9288 1ZM27.6192 3.07121V7.55886H10.7043V2.38081H26.9288C27.3095 2.38081 27.6192 2.69057 27.6192 3.07121ZM3.07121 2.38081H9.32307V7.55886H2.38081V3.07121C2.38081 2.69057 2.69057 2.38081 3.07121 2.38081ZM2.38081 26.9288V8.93967H9.32307V27.6188H3.07121C2.69057 27.6192 2.38081 27.3094 2.38081 26.9288ZM26.9288 27.6192H10.7043V8.93967H27.6192V26.9283C27.6192 27.3094 27.3095 27.6192 26.9288 27.6192Z" fill="black" stroke="black" stroke-width="0.5"/>
</svg>
