<svg width="30" height="30" viewBox="0 0 30 30" fill="none" xmlns="http://www.w3.org/2000/svg">
<path d="M27.9053 23.4964V6.50361C29.1332 5.99707 30 4.78758 30 3.37893C30 1.51576 28.4842 0 26.6211 0C25.2124 0 24.0029 0.866777 23.4964 2.09473H6.50361C5.99707 0.866777 4.78758 0 3.37893 0C1.51576 0 0 1.51576 0 3.37893C0 4.78758 0.866777 5.99713 2.09473 6.50367V23.4964C0.866777 24.0029 0 25.2124 0 26.6211C0 28.4842 1.51576 30 3.37893 30C4.78758 30 5.99707 29.1332 6.50361 27.9053H23.4964C24.0029 29.1332 25.2124 30 26.6211 30C28.4842 30 30 28.4842 30 26.6211C30 25.2124 29.1332 24.0029 27.9053 23.4964ZM23.2761 26.1475H6.72393C6.51463 24.6627 5.33725 23.4853 3.85254 23.2761V6.72393C5.33725 6.51469 6.51463 5.33725 6.72393 3.85254H23.2761C23.4854 5.3373 24.6628 6.51469 26.1475 6.72393V23.276C24.6628 23.4853 23.4854 24.6627 23.2761 26.1475ZM26.6211 1.75781C27.515 1.75781 28.2422 2.48502 28.2422 3.37893C28.2422 4.27283 27.515 5.00004 26.6211 5.00004C25.7272 5.00004 25 4.27283 25 3.37893C25 2.48502 25.7272 1.75781 26.6211 1.75781V1.75781ZM3.37893 1.75781C4.27277 1.75781 4.99998 2.48502 4.99998 3.37893C4.99998 4.27283 4.27277 5.00004 3.37893 5.00004C2.48502 4.99998 1.75781 4.27277 1.75781 3.37893C1.75781 2.48502 2.48502 1.75781 3.37893 1.75781ZM3.37893 28.2422C2.48502 28.2422 1.75781 27.515 1.75781 26.6211C1.75781 25.7272 2.48502 25 3.37893 25C4.27277 25 4.99998 25.7272 4.99998 26.6211C4.99998 27.515 4.27277 28.2422 3.37893 28.2422ZM26.6211 28.2422C25.7272 28.2422 25 27.515 25 26.6211C25 25.7272 25.7272 25 26.6211 25C27.515 25 28.2422 25.7272 28.2422 26.6211C28.2422 27.515 27.515 28.2422 26.6211 28.2422V28.2422Z" fill="black"/>
<path d="M20.8329 8.33336H9.16637C8.70609 8.33336 8.33301 8.70644 8.33301 9.16672V10.8334C8.33301 11.2935 8.70609 11.6666 9.16637 11.6666C9.62642 11.6666 9.99973 11.2935 9.99973 10.8334V10.0001H14.1663V19.9999H12.4996C12.0395 19.9999 11.6662 20.3732 11.6662 20.8333C11.6662 21.2936 12.0395 21.6666 12.4996 21.6666H17.4997C17.9598 21.6666 18.3331 21.2936 18.3331 20.8333C18.3331 20.3732 17.9598 19.9999 17.4997 19.9999H15.833V10.0001H19.9996V10.8334C19.9996 11.2935 20.3729 11.6666 20.8329 11.6666C21.2932 11.6666 21.6663 11.2935 21.6663 10.8334V9.16672C21.6663 8.70644 21.2932 8.33336 20.8329 8.33336V8.33336Z" fill="black"/>
</svg>
