<svg width="21" height="21" viewBox="0 0 21 21" fill="none" xmlns="http://www.w3.org/2000/svg">
<rect width="21" height="21" rx="4" transform="matrix(-1 0 0 1 21 0)" fill="#F74848"/>
<path d="M11.6172 14.1875H12.2266C12.3789 14.1875 12.5312 14.0605 12.5312 13.8828V8.39844C12.5312 8.24609 12.3789 8.09375 12.2266 8.09375H11.6172C11.4395 8.09375 11.3125 8.24609 11.3125 8.39844V13.8828C11.3125 14.0605 11.4395 14.1875 11.6172 14.1875ZM15.7812 5.65625H13.6738L12.8105 4.23438C12.6074 3.9043 12.1504 3.625 11.7695 3.625H9.20508C8.82422 3.625 8.36719 3.9043 8.16406 4.23438L7.30078 5.65625H5.21875C4.99023 5.65625 4.8125 5.85938 4.8125 6.0625V6.46875C4.8125 6.69727 4.99023 6.875 5.21875 6.875H5.625V15.4062C5.625 16.0918 6.1582 16.625 6.84375 16.625H14.1562C14.8164 16.625 15.375 16.0918 15.375 15.4062V6.875H15.7812C15.9844 6.875 16.1875 6.69727 16.1875 6.46875V6.0625C16.1875 5.85938 15.9844 5.65625 15.7812 5.65625ZM9.1543 4.91992C9.17969 4.89453 9.25586 4.84375 9.28125 4.84375H9.30664H11.6934C11.7188 4.84375 11.7949 4.89453 11.8203 4.91992L12.252 5.65625H8.72266L9.1543 4.91992ZM14.1562 15.4062H6.84375V6.875H14.1562V15.4062ZM8.77344 14.1875H9.38281C9.53516 14.1875 9.6875 14.0605 9.6875 13.8828V8.39844C9.6875 8.24609 9.53516 8.09375 9.38281 8.09375H8.77344C8.5957 8.09375 8.46875 8.24609 8.46875 8.39844V13.8828C8.46875 14.0605 8.5957 14.1875 8.77344 14.1875Z" fill="white"/>
</svg>
