<svg width="40" height="40" viewBox="0 0 40 40" fill="none" xmlns="http://www.w3.org/2000/svg">
<path fill-rule="evenodd" clip-rule="evenodd" d="M7.66576 12.3911C9.11469 7.11802 13.9341 3.2377 19.6722 3.2377C26.3278 3.2377 31.7651 8.45742 32.1134 15.0263C36.2456 16.092 39.3033 19.8346 39.3033 24.3033C39.3033 29.6002 35.0101 33.8934 29.7131 33.8934H11.0656C4.97689 33.8934 0.0410156 28.9576 0.0410156 22.8689C0.0410156 17.9645 3.2454 13.8248 7.66576 12.3911ZM19.6722 5.20491C14.6728 5.20491 10.4954 8.70608 9.44334 13.3906C9.36304 13.7481 9.09064 14.0313 8.73652 14.1256C4.86258 15.1562 2.00823 18.6761 2.00823 22.8689C2.00823 27.8711 6.06335 31.9262 11.0656 31.9262H29.7131C33.9236 31.9262 37.3361 28.5138 37.3361 24.3033C37.3361 20.5277 34.5861 17.3981 30.9781 16.7945C30.4918 16.7131 30.1408 16.2842 30.1574 15.7914C30.1583 15.7647 30.1597 15.7414 30.1609 15.7242C30.1617 15.7126 30.1628 15.6988 30.1634 15.691L30.1638 15.6861C30.1638 15.6851 30.1639 15.6842 30.164 15.6834C30.1568 9.89543 25.4618 5.20491 19.6722 5.20491Z" fill="white"/>
<path fill-rule="evenodd" clip-rule="evenodd" d="M19.6721 11.8443C20.2153 11.8443 20.6557 12.2846 20.6557 12.8279V27.1721C20.6557 27.7154 20.2153 28.1557 19.6721 28.1557C19.1289 28.1557 18.6885 27.7154 18.6885 27.1721V12.8279C18.6885 12.2846 19.1289 11.8443 19.6721 11.8443Z" fill="white"/>
<path fill-rule="evenodd" clip-rule="evenodd" d="M18.977 12.1324C19.3611 11.7482 19.9839 11.7482 20.368 12.1324L26.1057 17.8701C26.4898 18.2542 26.4898 18.877 26.1057 19.2611C25.7216 19.6452 25.0988 19.6452 24.7147 19.2611L19.6725 14.2189L14.6303 19.2611C14.2462 19.6452 13.6234 19.6452 13.2393 19.2611C12.8551 18.877 12.8551 18.2542 13.2393 17.8701L18.977 12.1324Z" fill="white"/>
</svg>
