<svg xmlns="http://www.w3.org/2000/svg" viewBox="0 0 268.64 208.05"><defs><style>.cls-1,.cls-3{fill:#161f3b;}.cls-1,.cls-2,.cls-3{stroke:#231f20;stroke-miterlimit:10;}.cls-1,.cls-2{stroke-width:0.25px;}.cls-2{fill:#284371;}.cls-3{stroke-width:3px;}.cls-4{fill:#231f20;}</style></defs><title>Asset 3</title><g id="Layer_2" data-name="Layer 2"><g id="Layer_7" data-name="Layer 7"><polygon class="cls-1" points="24.07 136.37 49.62 102.79 53.62 107.55 35.97 130.76 40.68 136.28 24.07 136.37"/><polygon class="cls-1" points="76.46 135.08 120.84 83.6 125.44 89.44 86.13 135.34 76.46 135.08"/><polygon class="cls-2" points="76.42 130.79 103.43 99.63 53.17 98.6 76.42 130.79"/><polygon class="cls-2" points="124.74 80.21 168.13 130.24 163.39 135.35 192.75 135.19 165.63 99.24 124.74 80.21"/><polygon class="cls-2" points="169.73 100.14 195.92 135.12 220.53 99.13 169.73 100.14"/><polygon class="cls-1" points="219.84 107.2 238.13 128.95 233.2 135.16 249.39 134.97 223.16 101.42 219.84 107.2"/><polygon class="cls-1" points="184.11 96.41 191.88 96.61 191.91 65.89 183.82 59.85 184.11 96.41"/><polygon class="cls-1" points="168.14 64.93 168 42.83 176.29 49.08 176.44 59.34 168.14 64.93"/><polygon class="cls-1" points="140.12 84.38 152.37 89.15 152.54 74.88 165.98 66.78 166.31 42.46 140.37 59.22 140.12 84.38"/><polygon class="cls-2" points="137.19 83.03 137.72 67.5 124.43 58.26 124.25 76.87 137.19 83.03"/><polygon class="cls-2" points="109.8 91.08 122.02 77.13 122.61 59.06 109.51 66.43 109.8 91.08"/><polygon class="cls-2" points="109.2 62.19 109.48 47.7 121.52 40.41 121.54 55.64 109.2 62.19"/><polygon class="cls-2" points="124.21 54.66 124.07 40.06 142.64 53.67 137.03 57.65 137.5 64 124.21 54.66"/><polygon class="cls-2" points="109.05 44.1 109.21 30.14 121.57 22.96 121.31 36.71 109.05 44.1"/><polygon class="cls-2" points="123.86 36.24 124.02 22.18 145.28 38.09 145.37 34.71 123.49 18.36 123.76 0.39 152.17 21.67 152.95 47.81 145.32 52.37 123.86 36.24"/><polygon class="cls-1" points="98.08 19.37 106.54 27.43 121.28 18.09 121.44 0.22 98.33 13.88 98.08 19.37"/><polygon class="cls-1" points="96.68 95.27 106.93 95.55 106.42 31.86 96.02 21.11 96.68 95.27"/><path class="cls-2" d="M94.23,20.85,72.11,37.18l0,58.28,22.63.08ZM74.47,39.94l17.16-12.6-.07,4.6-17,12.5Zm0,9.73,17.15-12.6-.07,4.6-17,12.5Zm.26,8L91.84,45.1l-.07,4.6-17,12.5Zm0,9.08,17.16-12.6-.07,4.6L74.74,71.27ZM92.1,63,92,67.64,75,80.14l0-4.5ZM74.86,88.86l0-4.5L92,71.76l-.07,4.6Z"/><path class="cls-2" d="M178.08,82.6,178,87.45l-11.78,7.93,3.1,1.24,8.25-5.52.11,4.3L175.13,97l7.39-.32-.16-37.24L154.72,76.31l.35,14.61L162,93.68ZM159.4,79.4l18.47-12.3-.18,4.54L159.55,83.42Zm18-4.54,0,4.6L160.1,90.79l-.21-4Z"/><rect class="cls-1" x="51.1" y="126.62" width="3.85" height="4.4" transform="translate(3.48 -1.38) rotate(1.54)"/><rect class="cls-1" x="56.83" y="126.64" width="3.85" height="4.4" transform="translate(3.48 -1.53) rotate(1.54)"/><path class="cls-1" d="M60.49,124.55l-3.85-.13.29-4.55a2.73,2.73,0,0,1,.36.07,4.33,4.33,0,0,1,3.2,4.22Z"/><path class="cls-1" d="M51.12,124.53l3.85.07,0-4.55a3.25,3.25,0,0,0-.36,0,4.33,4.33,0,0,0-2.93,2.21,4.52,4.52,0,0,0-.5,1.84Z"/><rect class="cls-1" x="212.6" y="125.77" width="3.85" height="4.4" transform="translate(3.51 -5.72) rotate(1.54)"/><rect class="cls-1" x="218.33" y="125.79" width="3.85" height="4.4" transform="translate(3.52 -5.87) rotate(1.54)"/><path class="cls-1" d="M222,123.7l-3.85-.14.29-4.54.36.06a4.37,4.37,0,0,1,2.81,2.37,4.42,4.42,0,0,1,.4,1.85Z"/><path class="cls-1" d="M212.62,123.68l3.85.07,0-4.56-.37,0a4.35,4.35,0,0,0-2.93,2.21,4.47,4.47,0,0,0-.5,1.83Z"/><rect class="cls-1" x="121.03" y="125.15" width="6.78" height="7.75" transform="translate(3.51 -3.29) rotate(1.54)"/><rect class="cls-1" x="131.13" y="125.18" width="6.78" height="7.75" transform="translate(3.51 -3.57) rotate(1.54)"/><path class="cls-1" d="M137.57,121.5l-6.79-.23.52-8a4.72,4.72,0,0,1,.63.12,7.64,7.64,0,0,1,5.65,7.43Z"/><path class="cls-1" d="M121.06,121.47l6.79.13-.09-8a5.48,5.48,0,0,0-.64.08,7.65,7.65,0,0,0-6,7.12Z"/><line class="cls-3" y1="201.05" x2="58.68" y2="201.05"/><line class="cls-3" x1="209.96" y1="199.23" x2="268.64" y2="199.23"/><path class="cls-1" d="M34.85,172.24a57,57,0,0,1-2.4,7.6A45,45,0,0,1,24,181C11,181,5.49,172.94,5.49,164.14c0-9.9,7.31-17.1,19.06-17.1a60.51,60.51,0,0,1,8.85,1c.1,2.55.45,5.6.7,7.65l-.9.2c-1-3.55-2.25-5.45-5.05-6.75a10.64,10.64,0,0,0-4.85-.9c-7.5,0-10.7,6.7-10.7,14.95,0,9.65,4.5,16.55,11.9,16.55,4.65,0,7.35-2.8,9.55-7.8Z"/><path class="cls-1" d="M57.75,147A16.22,16.22,0,0,1,74,163.69c0,10.45-7.35,17.3-16.41,17.3-9.7,0-16.6-7.5-16.6-16.75C41,155.69,47.19,147,57.75,147Zm-1,1.25c-4.9,0-8.6,4.9-8.6,14.8,0,9.35,3.8,16.65,10.31,16.65,5,0,8.4-5.05,8.4-14.75C66.85,154.54,62.9,148.29,56.74,148.29Z"/><path class="cls-1" d="M105.05,172.09c-.46,2.3-1.81,7.4-2.1,8.15H79.29v-.8c4.4-.65,4.65-1.05,4.65-5.35v-20.2c0-4.45-.35-4.7-4.15-5.35v-.8H94.24v.8c-3.75.7-4.1,1.05-4.1,5.35v21.4c0,3.15.85,3.45,3.35,3.45h3c2.71,0,3.4-.4,4.71-1.6a18.86,18.86,0,0,0,3.1-5.25Z"/><path class="cls-1" d="M126.84,147a16.22,16.22,0,0,1,16.25,16.65c0,10.45-7.35,17.3-16.4,17.3-9.7,0-16.6-7.5-16.6-16.75C110.09,155.69,116.29,147,126.84,147Zm-1,1.25c-4.9,0-8.6,4.9-8.6,14.8,0,9.35,3.8,16.65,10.3,16.65,5,0,8.4-5.05,8.4-14.75C135.94,154.54,132,148.29,125.84,148.29Z"/><path class="cls-1" d="M167.44,154.84c-1.05-4.15-3.45-6.65-7.3-6.65-3,0-4.7,2.05-4.7,5.25s1.75,4.65,6.05,7.2,8.15,5.25,8.15,10.5c0,5.75-4.85,9.85-11.5,9.85a30.31,30.31,0,0,1-7.55-1.2c-.3-.95-1.05-6.85-1.1-7.65l.8-.15c1.1,4.35,4.05,7.85,8.65,7.85,3.45,0,4.95-2.35,4.95-5.7,0-3.15-1.85-5.4-5.4-7.55-4.5-2.75-8.15-5.3-8.15-10.4s4-9.15,10.7-9.15a50.74,50.74,0,0,1,6.35.65c.2,1.85.5,4.6.85,7Z"/><path class="cls-1" d="M194.19,154.84c-1.05-4.15-3.45-6.65-7.3-6.65-3,0-4.7,2.05-4.7,5.25s1.75,4.65,6.05,7.2,8.15,5.25,8.15,10.5c0,5.75-4.85,9.85-11.5,9.85a30.31,30.31,0,0,1-7.55-1.2c-.3-.95-1.05-6.85-1.1-7.65l.8-.15c1.1,4.35,4.05,7.85,8.65,7.85,3.45,0,4.95-2.35,4.95-5.7,0-3.15-1.85-5.4-5.4-7.55-4.5-2.75-8.15-5.3-8.15-10.4s4-9.15,10.7-9.15a50.74,50.74,0,0,1,6.35.65c.2,1.85.5,4.6.85,7Z"/><path class="cls-1" d="M218.69,180.24v-.8c3.45-.75,3.5-1.3,2.6-3.9-.6-1.65-1.45-4.25-2.5-7h-9.15c-.85,2.3-1.65,4.55-2.25,6.35-1.15,3.35-.75,3.8,3.6,4.6v.8H200.14v-.8c3.3-.55,4-1.2,5.7-5.65l10.35-26.4,1.35-.2c3.15,8.85,6.4,17.55,9.7,26.3,1.75,4.8,2.25,5.3,5.3,5.95v.8Zm-4.35-24.6c-1.55,4.15-2.7,7.55-4.1,11.25h7.95Z"/><path class="cls-1" d="M260.79,172.09c-.45,2.3-1.8,7.4-2.1,8.15H235v-.8c4.4-.65,4.65-1.05,4.65-5.35v-20.2c0-4.45-.35-4.7-4.15-5.35v-.8H250v.8c-3.75.7-4.1,1.05-4.1,5.35v21.4c0,3.15.85,3.45,3.35,3.45h3c2.7,0,3.4-.4,4.7-1.6a18.62,18.62,0,0,0,3.1-5.25Z"/><path class="cls-4" d="M78.33,207.86H77.25c-2.88-.12-3.65-.67-4.46-1.94s-1.59-2.64-2.36-4.13c-.52-1-.88-1.3-1.7-1.3h-.36v4.23c0,2,.14,2.21,1.92,2.59v.38H63.52v-.38c1.78-.38,1.92-.53,1.92-2.59V195c0-2-.14-2.28-1.92-2.56v-.39H70c2,0,3.17.22,4.15.91a3.32,3.32,0,0,1,1.44,2.84,4.36,4.36,0,0,1-3,4c.36.64,1.63,2.85,2.31,3.93a18.69,18.69,0,0,0,1.75,2.57,3.33,3.33,0,0,0,1.82,1.18Zm-9.48-7.92a3,3,0,0,0,3.53-3.5c0-2.79-1.39-3.79-2.76-3.79a1.82,1.82,0,0,0-1,.16c-.16.12-.26.29-.26.77v6.36Z"/><path class="cls-4" d="M92.51,191.76a7.78,7.78,0,0,1,7.8,8c0,5-3.52,8.3-7.87,8.3a7.85,7.85,0,0,1-8-8A8,8,0,0,1,92.51,191.76Zm-.48.6c-2.35,0-4.12,2.35-4.12,7.1,0,4.49,1.82,8,4.94,8,2.4,0,4-2.42,4-7.08C96.88,195.36,95,192.36,92,192.36Z"/><path class="cls-4" d="M116.63,191.76a7.78,7.78,0,0,1,7.8,8c0,5-3.52,8.3-7.87,8.3a7.85,7.85,0,0,1-8-8A8,8,0,0,1,116.63,191.76Zm-.48.6c-2.35,0-4.12,2.35-4.12,7.1,0,4.49,1.82,8,4.94,8,2.4,0,4-2.42,4-7.08C121,195.36,119.11,192.36,116.15,192.36Z"/><path class="cls-4" d="M143,195.69a7,7,0,0,0-.74-1.85c-.44-.74-1.06-1-2.62-1H138c-.72,0-.89.12-.89.84v5.71h2.64c1.75,0,1.9-.38,2.31-2.06h.36v4.85H142c-.45-1.63-.53-2.06-2.28-2.06h-2.64v4.22c0,2.5.14,2.64,2.19,3v.38h-7.09v-.38c1.76-.31,1.92-.5,1.92-3v-9c0-2.38-.16-2.5-1.92-2.83v-.39h7.54c2.35,0,3.19,0,3.46-.05,0,.44.09,2.33.21,3.61Z"/><path class="cls-4" d="M150.93,207.69v-.38c1.8-.31,1.92-.48,1.92-2.71v-9.44c0-2.23-.17-2.42-1.92-2.68v-.39h6.84v.39c-1.75.31-1.94.43-1.94,2.68v9.41c0,2.31.14,2.43,1.94,2.74v.38Z"/><path class="cls-4" d="M181.51,192.48c-1.59.33-1.95.6-2,2.23,0,.74-.07,1.34-.07,3.84V208h-.6l-10.78-13v6.14c0,2.24,0,2.93.08,3.72.09,1.64.24,2.07,2.47,2.38v.38h-5.55v-.38c1.8-.26,2-.62,2.09-2.3,0-.87.12-1.8.12-3.8v-6.29a2.11,2.11,0,0,0-.38-1.27,2.6,2.6,0,0,0-2.11-1.17v-.39h4.58L178.67,203v-4.42c0-2.5-.07-3.12-.09-3.79-.07-1.68-.63-2-2.71-2.28v-.39h5.64Z"/><path class="cls-4" d="M204.45,200.88c-1.27.33-1.54.5-1.54,1.77v2.26a13.61,13.61,0,0,0,.17,2.33,32.79,32.79,0,0,1-5.62.81c-5.56,0-8.56-3.28-8.56-8,0-5.54,4.22-8.3,9.12-8.3a33,33,0,0,1,4.7.45c.05,1.06.1,2.31.26,3.72l-.38.07a4.06,4.06,0,0,0-2.62-3.28,7.53,7.53,0,0,0-2.52-.36c-3.16,0-5.18,2.47-5.18,7.1,0,4.27,1.27,8,5.26,8a3.93,3.93,0,0,0,1.8-.39c.36-.21.6-.5.6-1.7V203c0-1.54-.22-1.78-2.14-2.09v-.39h6.65Z"/></g></g></svg>